<svg xmlns="http://www.w3.org/2000/svg" xmlns:xlink="http://www.w3.org/1999/xlink" viewBox="0 0 159.38 199.41"><defs><style>.cls-1{isolation:isolate;}.cls-12,.cls-18,.cls-2,.cls-56,.cls-57,.cls-58,.cls-8,.cls-9{opacity:0.3;}.cls-12,.cls-15,.cls-18,.cls-2,.cls-21,.cls-3,.cls-35,.cls-40,.cls-53,.cls-56,.cls-57,.cls-58,.cls-8,.cls-9{mix-blend-mode:multiply;}.cls-2{fill:url(#Áåçûìÿííûé_ãðàäèåíò_153);}.cls-15,.cls-21,.cls-3,.cls-32,.cls-33,.cls-35,.cls-40,.cls-53,.cls-59,.cls-60{opacity:0.5;}.cls-3{fill:url(#Áåçûìÿííûé_ãðàäèåíò_123);}.cls-4{fill:url(#Áåçûìÿííûé_ãðàäèåíò_46);}.cls-5{fill:url(#Áåçûìÿííûé_ãðàäèåíò_28);}.cls-6{fill:url(#Áåçûìÿííûé_ãðàäèåíò_46-2);}.cls-7{fill:url(#Áåçûìÿííûé_ãðàäèåíò_28-2);}.cls-8{fill:url(#Áåçûìÿííûé_ãðàäèåíò_153-2);}.cls-9{fill:url(#Áåçûìÿííûé_ãðàäèåíò_153-3);}.cls-10{fill:url(#Áåçûìÿííûé_ãðàäèåíò_46-3);}.cls-11{fill:url(#Áåçûìÿííûé_ãðàäèåíò_28-3);}.cls-12{fill:url(#Áåçûìÿííûé_ãðàäèåíò_153-4);}.cls-13{fill:url(#Áåçûìÿííûé_ãðàäèåíò_46-4);}.cls-14{fill:url(#Áåçûìÿííûé_ãðàäèåíò_28-4);}.cls-15{fill:url(#Áåçûìÿííûé_ãðàäèåíò_416);}.cls-16{fill:url(#Áåçûìÿííûé_ãðàäèåíò_46-5);}.cls-17{fill:url(#Áåçûìÿííûé_ãðàäèåíò_46-6);}.cls-18{fill:url(#Áåçûìÿííûé_ãðàäèåíò_153-5);}.cls-19{fill:url(#Áåçûìÿííûé_ãðàäèåíò_28-5);}.cls-20{fill:#d5faee;}.cls-21{fill:url(#Áåçûìÿííûé_ãðàäèåíò_416-2);}.cls-22{fill:#fff;}.cls-23,.cls-24,.cls-39,.cls-41{opacity:0.72;}.cls-23,.cls-24,.cls-32,.cls-33,.cls-34,.cls-39,.cls-41,.cls-59,.cls-60{mix-blend-mode:screen;}.cls-23{fill:url(#Áåçûìÿííûé_ãðàäèåíò_143);}.cls-24{fill:url(#Áåçûìÿííûé_ãðàäèåíò_134);}.cls-25{fill:url(#Áåçûìÿííûé_ãðàäèåíò_36);}.cls-26{fill:url(#Áåçûìÿííûé_ãðàäèåíò_264);}.cls-27{fill:url(#Áåçûìÿííûé_ãðàäèåíò_28-6);}.cls-28{fill:url(#Áåçûìÿííûé_ãðàäèåíò_264-2);}.cls-29{fill:url(#Áåçûìÿííûé_ãðàäèåíò_28-7);}.cls-30{fill:url(#Áåçûìÿííûé_ãðàäèåíò_46-7);}.cls-31{fill:url(#Áåçûìÿííûé_ãðàäèåíò_132);}.cls-32{fill:url(#Áåçûìÿííûé_ãðàäèåíò_54);}.cls-33{fill:url(#Áåçûìÿííûé_ãðàäèåíò_54-2);}.cls-34{opacity:0.2;fill:url(#Áåçûìÿííûé_ãðàäèåíò_126);}.cls-35{fill:url(#Áåçûìÿííûé_ãðàäèåíò_416-3);}.cls-36{fill:url(#Áåçûìÿííûé_ãðàäèåíò_28-8);}.cls-37{fill:url(#Áåçûìÿííûé_ãðàäèåíò_8);}.cls-38{fill:url(#Áåçûìÿííûé_ãðàäèåíò_65);}.cls-39{fill:url(#Áåçûìÿííûé_ãðàäèåíò_134-2);}.cls-40{fill:url(#Áåçûìÿííûé_ãðàäèåíò_416-4);}.cls-41{fill:url(#Áåçûìÿííûé_ãðàäèåíò_143-2);}.cls-42{fill:url(#Áåçûìÿííûé_ãðàäèåíò_46-8);}.cls-43{fill:url(#Áåçûìÿííûé_ãðàäèåíò_91);}.cls-44{fill:#2f95cd;}.cls-45{fill:url(#Áåçûìÿííûé_ãðàäèåíò_132-2);}.cls-46{fill:url(#Áåçûìÿííûé_ãðàäèåíò_46-9);}.cls-47{fill:url(#Áåçûìÿííûé_ãðàäèåíò_91-2);}.cls-48{fill:url(#Áåçûìÿííûé_ãðàäèåíò_8-2);}.cls-49{fill:url(#Áåçûìÿííûé_ãðàäèåíò_65-2);}.cls-50{fill:url(#Áåçûìÿííûé_ãðàäèåíò_46-10);}.cls-51{fill:url(#Áåçûìÿííûé_ãðàäèåíò_28-9);}.cls-52{fill:url(#Áåçûìÿííûé_ãðàäèåíò_14);}.cls-53{fill:url(#Áåçûìÿííûé_ãðàäèåíò_416-5);}.cls-54{fill:url(#Áåçûìÿííûé_ãðàäèåíò_46-11);}.cls-55{fill:url(#Áåçûìÿííûé_ãðàäèåíò_46-12);}.cls-56{fill:url(#Áåçûìÿííûé_ãðàäèåíò_153-6);}.cls-57{fill:url(#Áåçûìÿííûé_ãðàäèåíò_153-7);}.cls-58{fill:url(#Áåçûìÿííûé_ãðàäèåíò_153-8);}.cls-59{fill:url(#Áåçûìÿííûé_ãðàäèåíò_11);}.cls-60{fill:url(#Áåçûìÿííûé_ãðàäèåíò_7);}</style><linearGradient id="Áåçûìÿííûé_ãðàäèåíò_153" x1="159.35" y1="199.41" x2="159.35" y2="199.36" gradientUnits="userSpaceOnUse"><stop offset="0" stop-color="#9d68c2"/><stop offset="1" stop-color="#ccedff"/></linearGradient><radialGradient id="Áåçûìÿííûé_ãðàäèåíò_123" cx="79.65" cy="-97.86" r="40.79" gradientTransform="translate(0 209.56) scale(1 0.22)" gradientUnits="userSpaceOnUse"><stop offset="0" stop-color="#be9dea"/><stop offset="0.39" stop-color="#e0bff5"/><stop offset="1" stop-color="#fff"/></radialGradient><linearGradient id="Áåçûìÿííûé_ãðàäèåíò_46" x1="63.8" y1="179.57" x2="67.97" y2="146.41" gradientUnits="userSpaceOnUse"><stop offset="0" stop-color="#cbc1f7"/><stop offset="1" stop-color="#e8dcf7"/></linearGradient><linearGradient id="Áåçûìÿííûé_ãðàäèåíò_28" x1="66.87" y1="156.13" x2="66.87" y2="144.91" gradientUnits="userSpaceOnUse"><stop offset="0" stop-color="#be9dea"/><stop offset="1" stop-color="#9e8cef"/></linearGradient><linearGradient id="Áåçûìÿííûé_ãðàäèåíò_46-2" x1="89.28" y1="181.24" x2="94.02" y2="143.53" xlink:href="#Áåçûìÿííûé_ãðàäèåíò_46"/><linearGradient id="Áåçûìÿííûé_ãðàäèåíò_28-2" x1="93.25" y1="156.16" x2="93.25" y2="144.94" xlink:href="#Áåçûìÿííûé_ãðàäèåíò_28"/><linearGradient id="Áåçûìÿííûé_ãðàäèåíò_153-2" x1="66.87" y1="178.27" x2="66.87" y2="144.91" xlink:href="#Áåçûìÿííûé_ãðàäèåíò_153"/><linearGradient id="Áåçûìÿííûé_ãðàäèåíò_153-3" x1="93.25" y1="179.03" x2="93.25" y2="144.94" xlink:href="#Áåçûìÿííûé_ãðàäèåíò_153"/><linearGradient id="Áåçûìÿííûé_ãðàäèåíò_46-3" x1="35.12" y1="135.95" x2="41.39" y2="86.09" xlink:href="#Áåçûìÿííûé_ãðàäèåíò_46"/><linearGradient id="Áåçûìÿííûé_ãðàäèåíò_28-3" x1="20.64" y1="135.99" x2="20.64" y2="117.5" xlink:href="#Áåçûìÿííûé_ãðàäèåíò_28"/><linearGradient id="Áåçûìÿííûé_ãðàäèåíò_153-4" x1="37.59" y1="135.99" x2="37.59" y2="88.42" xlink:href="#Áåçûìÿííûé_ãðàäèåíò_153"/><linearGradient id="Áåçûìÿííûé_ãðàäèåíò_46-4" x1="10.39" y1="151.4" x2="14.14" y2="121.58" xlink:href="#Áåçûìÿííûé_ãðàäèåíò_46"/><linearGradient id="Áåçûìÿííûé_ãðàäèåíò_28-4" x1="14.05" y1="150.55" x2="14.05" y2="123.21" xlink:href="#Áåçûìÿííûé_ãðàäèåíò_28"/><linearGradient id="Áåçûìÿííûé_ãðàäèåíò_416" x1="13.84" y1="144.55" x2="13.84" y2="126.75" gradientUnits="userSpaceOnUse"><stop offset="0" stop-color="#8da4e5"/><stop offset="1" stop-color="#755cbb"/></linearGradient><linearGradient id="Áåçûìÿííûé_ãðàäèåíò_46-5" x1="17.24" y1="145.22" x2="19.91" y2="124.04" xlink:href="#Áåçûìÿííûé_ãðàäèåíò_46"/><linearGradient id="Áåçûìÿííûé_ãðàäèåíò_46-6" x1="76.14" y1="155.36" x2="85.72" y2="79.1" xlink:href="#Áåçûìÿííûé_ãðàäèåíò_46"/><linearGradient id="Áåçûìÿííûé_ãðàäèåíò_153-5" x1="80.04" y1="155.49" x2="80.04" y2="94.14" xlink:href="#Áåçûìÿííûé_ãðàäèåíò_153"/><linearGradient id="Áåçûìÿííûé_ãðàäèåíò_28-5" x1="79.45" y1="154.24" x2="79.45" y2="105.92" xlink:href="#Áåçûìÿííûé_ãðàäèåíò_28"/><linearGradient id="Áåçûìÿííûé_ãðàäèåíò_416-2" x1="78.98" y1="93.49" x2="78.98" y2="78.53" xlink:href="#Áåçûìÿííûé_ãðàäèåíò_416"/><linearGradient id="Áåçûìÿííûé_ãðàäèåíò_143" x1="80.62" y1="152.8" x2="80.62" y2="144.43" gradientUnits="userSpaceOnUse"><stop offset="0" stop-color="#d4e2ff"/><stop offset="1"/></linearGradient><linearGradient id="Áåçûìÿííûé_ãðàäèåíò_134" x1="59.9" y1="119.14" x2="101.91" y2="119.14" gradientUnits="userSpaceOnUse"><stop offset="0"/><stop offset="1" stop-color="#d4e2ff"/></linearGradient><linearGradient id="Áåçûìÿííûé_ãðàäèåíò_36" x1="96.39" y1="97.57" x2="106.14" y2="97.57" gradientUnits="userSpaceOnUse"><stop offset="0" stop-color="#8879ea"/><stop offset="1" stop-color="#9e8cef"/></linearGradient><linearGradient id="Áåçûìÿííûé_ãðàäèåíò_264" x1="115.48" y1="38.86" x2="115.48" y2="4.19" gradientUnits="userSpaceOnUse"><stop offset="0" stop-color="#b9acf4"/><stop offset="1" stop-color="#e1d1f5"/></linearGradient><linearGradient id="Áåçûìÿííûé_ãðàäèåíò_28-6" x1="118" y1="23.03" x2="118" y2="4.18" xlink:href="#Áåçûìÿííûé_ãðàäèåíò_28"/><linearGradient id="Áåçûìÿííûé_ãðàäèåíò_264-2" x1="898.52" y1="40.21" x2="898.52" y2="5.54" gradientTransform="matrix(-1, 0, 0, 1, 941.77, 0)" xlink:href="#Áåçûìÿííûé_ãðàäèåíò_264"/><linearGradient id="Áåçûìÿííûé_ãðàäèåíò_28-7" x1="901.04" y1="24.39" x2="901.04" y2="5.54" gradientTransform="matrix(-1, 0, 0, 1, 941.77, 0)" xlink:href="#Áåçûìÿííûé_ãðàäèåíò_28"/><linearGradient id="Áåçûìÿííûé_ãðàäèåíò_46-7" x1="76.26" y1="84.65" x2="86.83" y2="0.44" xlink:href="#Áåçûìÿííûé_ãðàäèåíò_46"/><linearGradient id="Áåçûìÿííûé_ãðàäèåíò_132" x1="79.66" y1="78.88" x2="79.66" y2="9.27" gradientUnits="userSpaceOnUse"><stop offset="0" stop-color="#0665bd"/><stop offset="1" stop-color="#1a1f77"/></linearGradient><linearGradient id="Áåçûìÿííûé_ãðàäèåíò_54" x1="50.5" y1="24.84" x2="111.91" y2="24.84" gradientUnits="userSpaceOnUse"><stop offset="0"/><stop offset="1" stop-color="#6a9bff"/></linearGradient><linearGradient id="Áåçûìÿííûé_ãðàäèåíò_54-2" x1="58.58" y1="73.95" x2="103.23" y2="73.95" xlink:href="#Áåçûìÿííûé_ãðàäèåíò_54"/><linearGradient id="Áåçûìÿííûé_ãðàäèåíò_126" x1="41.88" y1="66.69" x2="41.88" y2="43.92" gradientTransform="translate(6.67 -3.98) rotate(3.92)" gradientUnits="userSpaceOnUse"><stop offset="0"/><stop offset="1" stop-color="#00e3ff"/></linearGradient><linearGradient id="Áåçûìÿííûé_ãðàäèåíò_416-3" x1="46" y1="77.12" x2="46" y2="66.45" xlink:href="#Áåçûìÿííûé_ãðàäèåíò_416"/><linearGradient id="Áåçûìÿííûé_ãðàäèåíò_28-8" x1="26.36" y1="71.22" x2="31.41" y2="30.99" xlink:href="#Áåçûìÿííûé_ãðàäèåíò_28"/><linearGradient id="Áåçûìÿííûé_ãðàäèåíò_8" x1="39.8" y1="76.68" x2="39.8" y2="65.33" gradientTransform="matrix(0.97, 0.23, -0.23, 0.97, 24.81, -12.29)" gradientUnits="userSpaceOnUse"><stop offset="0" stop-color="#dd1a8f"/><stop offset="1" stop-color="#fe117e"/></linearGradient><linearGradient id="Áåçûìÿííûé_ãðàäèåíò_65" x1="46.68" y1="65.97" x2="46.68" y2="61.16" gradientUnits="userSpaceOnUse"><stop offset="0" stop-color="#d93de3"/><stop offset="1" stop-color="#ff6dba"/></linearGradient><linearGradient id="Áåçûìÿííûé_ãðàäèåíò_134-2" x1="117.6" y1="14.96" x2="126.47" y2="14.96" xlink:href="#Áåçûìÿííûé_ãðàäèåíò_134"/><linearGradient id="Áåçûìÿííûé_ãðàäèåíò_416-4" x1="97.21" y1="81.23" x2="97.21" y2="60.51" xlink:href="#Áåçûìÿííûé_ãðàäèåíò_416"/><linearGradient id="Áåçûìÿííûé_ãðàäèåíò_143-2" x1="31.79" y1="14.34" x2="41.56" y2="14.34" xlink:href="#Áåçûìÿííûé_ãðàäèåíò_143"/><linearGradient id="Áåçûìÿííûé_ãðàäèåíò_46-8" x1="22.76" y1="48.22" x2="22.76" y2="36.96" xlink:href="#Áåçûìÿííûé_ãðàäèåíò_46"/><radialGradient id="Áåçûìÿííûé_ãðàäèåíò_91" cx="59.74" cy="41.01" r="11.8" gradientUnits="userSpaceOnUse"><stop offset="0" stop-color="#45ffcd"/><stop offset="1" stop-color="#22e0ff"/></radialGradient><linearGradient id="Áåçûìÿííûé_ãðàäèåíò_132-2" x1="106.91" y1="73.1" x2="106.91" y2="18.38" xlink:href="#Áåçûìÿííûé_ãðàäèåíò_132"/><linearGradient id="Áåçûìÿííûé_ãðàäèåíò_46-9" x1="121.36" y1="64.49" x2="126.95" y2="19.97" xlink:href="#Áåçûìÿííûé_ãðàäèåíò_46"/><radialGradient id="Áåçûìÿííûé_ãðàäèåíò_91-2" cx="109.05" cy="49.18" r="17.33" xlink:href="#Áåçûìÿííûé_ãðàäèåíò_91"/><linearGradient id="Áåçûìÿííûé_ãðàäèåíò_8-2" x1="104.49" y1="77.02" x2="118.05" y2="19.43" gradientTransform="matrix(1, 0, 0, 1, 0, 0)" xlink:href="#Áåçûìÿííûé_ãðàäèåíò_8"/><linearGradient id="Áåçûìÿííûé_ãðàäèåíò_65-2" x1="104.49" y1="74.95" x2="118.05" y2="17.36" xlink:href="#Áåçûìÿííûé_ãðàäèåíò_65"/><linearGradient id="Áåçûìÿííûé_ãðàäèåíò_46-10" x1="119.08" y1="109.48" x2="122.57" y2="81.7" xlink:href="#Áåçûìÿííûé_ãðàäèåíò_46"/><linearGradient id="Áåçûìÿííûé_ãðàäèåíò_28-9" x1="140.87" y1="94.41" x2="140.87" y2="84.02" xlink:href="#Áåçûìÿííûé_ãðàäèåíò_28"/><linearGradient id="Áåçûìÿííûé_ãðàäèåíò_14" x1="137.9" y1="91.47" x2="139.7" y2="66.11" gradientUnits="userSpaceOnUse"><stop offset="0" stop-color="#a242ea"/><stop offset="1" stop-color="#fe117e"/></linearGradient><linearGradient id="Áåçûìÿííûé_ãðàäèåíò_416-5" x1="136.57" y1="90.39" x2="136.57" y2="66.47" xlink:href="#Áåçûìÿííûé_ãðàäèåíò_416"/><linearGradient id="Áåçûìÿííûé_ãðàäèåíò_46-11" x1="128.47" y1="81.62" x2="129.3" y2="75.03" xlink:href="#Áåçûìÿííûé_ãðàäèåíò_46"/><linearGradient id="Áåçûìÿííûé_ãðàäèåíò_46-12" x1="140.25" y1="79.73" x2="142.4" y2="62.62" xlink:href="#Áåçûìÿííûé_ãðàäèåíò_46"/><linearGradient id="Áåçûìÿííûé_ãðàäèåíò_153-6" x1="121.59" y1="109.7" x2="121.59" y2="83.51" xlink:href="#Áåçûìÿííûé_ãðàäèåíò_153"/><linearGradient id="Áåçûìÿííûé_ãðàäèåíò_153-7" x1="128.93" y1="81.64" x2="128.93" y2="74.81" xlink:href="#Áåçûìÿííûé_ãðàäèåíò_153"/><linearGradient id="Áåçûìÿííûé_ãðàäèåíò_153-8" x1="141.09" y1="80.6" x2="141.09" y2="66.47" xlink:href="#Áåçûìÿííûé_ãðàäèåíò_153"/><radialGradient id="Áåçûìÿííûé_ãðàäèåíò_11" cx="102.2" cy="47.57" r="24.13" gradientTransform="translate(7.07 0.28) scale(1.02 0.98)" gradientUnits="userSpaceOnUse"><stop offset="0"/><stop offset="0.23" stop-color="#010303"/><stop offset="0.37" stop-color="#050b0b"/><stop offset="0.48" stop-color="#0b1919"/><stop offset="0.58" stop-color="#132d2d"/><stop offset="0.67" stop-color="#1f4848"/><stop offset="0.75" stop-color="#2c6868"/><stop offset="0.83" stop-color="#3d8e8e"/><stop offset="0.91" stop-color="#50baba"/><stop offset="0.97" stop-color="#65ebeb"/><stop offset="1" stop-color="#6dffff"/></radialGradient><linearGradient id="Áåçûìÿííûé_ãðàäèåíò_7" x1="89.45" y1="35.1" x2="133.08" y2="35.1" gradientUnits="userSpaceOnUse"><stop offset="0" stop-color="#6a9bff"/><stop offset="1"/></linearGradient></defs><g class="cls-1"><g id="Camada_2" data-name="Camada 2"><g id="chatbot"><path class="cls-2" d="M159.32,199.36l.06,0A.16.16,0,0,1,159.32,199.36Z"/><ellipse class="cls-3" cx="79.65" cy="187.78" rx="40.78" ry="9.08"/><path class="cls-4" d="M80.06,156v0c0,.79-.23,16.08-3.29,22.25-.79,1.61-1.78,2.6-3,2.55-4.34-.18-14.19-18.49-18.08-28.88a25.65,25.65,0,0,1-1.59-5.57c-.09-.9,0-1.41.49-1.42a20.48,20.48,0,0,1,2.71.12l.36.05C68.44,146.42,78.9,155,80,155.92Z"/><path class="cls-5" d="M80.06,156c-14.37,1.25-23.93-6.35-26-9.62-.53-.83-.55-1.38,0-1.42a15.41,15.41,0,0,1,3.23.12l.36.05c9.52,1.44,21.15,9.94,22.32,10.8Z"/><path class="cls-6" d="M106,146.39a28.4,28.4,0,0,1-1.93,6.47c-4.09,10.5-13.52,27.81-17.75,28A3.06,3.06,0,0,1,83.75,179c-3.52-5.72-3.69-23-3.69-23l.09-.07c1.08-.91,11.57-9.54,22.38-10.81l.3,0a20.71,20.71,0,0,1,2.72-.12C106,145,106.13,145.5,106,146.39Z"/><path class="cls-7" d="M106,146.39c-2,3.25-11.58,10.89-26,9.63l.09-.07c1.17-.87,12.85-9.39,22.38-10.81l.3,0a15.39,15.39,0,0,1,3.23-.12C106.58,145,106.56,145.56,106,146.39Z"/><path class="cls-8" d="M80.06,156v0c0,.79-.23,16.08-3.29,22.25,0,0-.85-16.16-5.15-19.82s-15.94-6.51-15.94-6.51a25.65,25.65,0,0,1-1.59-5.57c-.53-.83-.55-1.38,0-1.42a15.41,15.41,0,0,1,3.23.12l.36.05C68.44,146.42,78.9,155,80,155.92Z"/><path class="cls-9" d="M106,146.39a28.4,28.4,0,0,1-1.93,6.47c-2,.43-12.77,2.92-16.57,9.5-3.18,5.49-3.72,13.19-3.79,16.67-3.52-5.72-3.69-23-3.69-23l.09-.07c1.08-.91,11.57-9.54,22.38-10.81l.3,0a15.39,15.39,0,0,1,3.23-.12C106.58,145,106.56,145.56,106,146.39Z"/><path class="cls-10" d="M59.69,99.83a56.38,56.38,0,0,1-1.93,10,40.42,40.42,0,0,1-2.85,3.56,70.5,70.5,0,0,1-31.47,20.46c-.39.14-.78.25-1.18.37-2.62.76-7.43-7.1-4.94-13.79a9.77,9.77,0,0,1,.91-1.87,37.81,37.81,0,0,1,5.8-6.5,137.71,137.71,0,0,1,29.1-20.68h0a58.1,58.1,0,0,1,6.79-3A65.49,65.49,0,0,1,59.69,99.83Z"/><path class="cls-11" d="M23.44,133.86a5.76,5.76,0,0,1-1,.9c-3.9,2.9-9.62,1.22-6.46-10.87a10.79,10.79,0,0,1,1.29-3.45,5.58,5.58,0,0,1,4.34-2.92C27,117,27.6,129.12,23.44,133.86Z"/><path class="cls-12" d="M59.69,99.83,54.91,113.4a70.5,70.5,0,0,1-31.47,20.46,5.76,5.76,0,0,1-1,.9c-3.9,2.9-9.62,1.22-6.46-10.87a10.79,10.79,0,0,1,1.29-3.45,9.77,9.77,0,0,1,.91-1.87,37.81,37.81,0,0,1,5.8-6.5c-.2.36-1.59,3.13,1.36,4.19,3.16,1.13,19.83-2.84,27.16-10.69s7.09-15.16.59-14.18a58.1,58.1,0,0,1,6.79-3A65.49,65.49,0,0,1,59.69,99.83Z"/><path class="cls-13" d="M20.61,122.39C16.49,121.64,4,130.7,0,149c0,0,.27,1.47,4,1.6s10.07-6.66,14.38-10.66S27.48,123.64,20.61,122.39Z"/><path class="cls-14" d="M4,150.55s6.48-9.66,7.78-12.06c0,0,2.47-12,6.33-14.38s5.15.28,6,3.26S18.57,148.42,4,150.55Z"/><path class="cls-15" d="M11.45,140.44S13,144,15,144.55c0,0-1.66-11.64,1.25-17.8A35.84,35.84,0,0,0,11.45,140.44Z"/><path class="cls-16" d="M17.86,124.84s4-2.8,6.19,2.53a49,49,0,0,1-5.62,17.52s-2.49.71-3.45-.34C12.84,142.24,13.46,127.9,17.86,124.84Z"/><path class="cls-17" d="M106.55,136.75c-1.9,11.24-12,18.74-26.4,18.74-12.56,0-23.21-4.68-26-15s-1.72-29.36,2-41.23a38.66,38.66,0,0,1,2-5.1v0A35.33,35.33,0,0,1,60.56,90a0,0,0,0,0,0,0C65.15,83,71.86,78.53,79.45,78.53a23,23,0,0,1,18,8.06A26.54,26.54,0,0,1,102,94.13a77.11,77.11,0,0,1,3.1,9.93.38.38,0,0,0,0,.1A84,84,0,0,1,106.55,136.75Z"/><path class="cls-18" d="M106.55,136.75c-1.9,11.24-12,18.74-26.4,18.74-12.56,0-23.21-4.68-26-15s-1.72-29.36,2-41.23a38.66,38.66,0,0,1,2-5.1v0s-7.6,25.2-1.53,41.25,34.39,15.71,44,5.05c9.11-10.15,4.9-34,4.47-36.28A84,84,0,0,1,106.55,136.75Z"/><path class="cls-19" d="M54.67,130.08C56.82,115,68.93,104.76,82.37,106c14.49,1.37,22.28,15.2,22.08,27.07S95.56,154.24,80,154.24,52.66,144.19,54.67,130.08Z"/><path class="cls-20" d="M54.81,131.33C57,116.24,69.06,106,82.51,107.28c14.49,1.37,22.28,15.2,22.07,27.07s-8.88,21.14-24.43,21.14S52.8,145.44,54.81,131.33Z"/><path class="cls-21" d="M97.5,86.59c-3.07,4.82-20,7.63-29.78,6.73-8.52-.77-7.22-3.07-7.16-3.36a0,0,0,0,0,0,0C65.15,83,71.86,78.53,79.45,78.53A23,23,0,0,1,97.5,86.59Z"/><path class="cls-22" d="M91.49,95c-.79.26-.83,6.6,0,7.62s2.14.71,2.58-.78S92.68,94.55,91.49,95Z"/><path class="cls-22" d="M92.94,104.26c-.66.16-.73,1.73-.43,2.28a1,1,0,0,0,1.63-.23C94.32,105.64,93.6,104.11,92.94,104.26Z"/><path class="cls-23" d="M63.32,146.7s3.47,6,16.41,6.09,18.2-7.65,18.2-7.65a18.9,18.9,0,0,1-14.51,1.56C74.89,144.36,66.45,143.05,63.32,146.7Z"/><path class="cls-24" d="M60,121.75c2.55,4.08,13.07,1.91,24.91,3.06s13.87,5,16.37,4.23-1.45-18.61-19.15-19.82S59.31,120.74,60,121.75Z"/><path class="cls-25" d="M98.44,87.75a7.78,7.78,0,0,0-2-1.74s3.25,16.42,9.75,23.13C106.14,109.14,103.32,93.66,98.44,87.75Z"/><path class="cls-26" d="M105.6,10.52s6.25-5.4,13.91-6.33c0,0,2.34,1.14,5,9.58s-2.29,25.09-2.29,25.09Z"/><path class="cls-27" d="M119.51,4.19a27,27,0,0,0-6.2,17.33l2.4,1.51,7-14.44S120.37,4.06,119.51,4.19Z"/><path class="cls-20" d="M115.48,22.31s-1.65-9.14,4.37-15.86c0,0,6.79,3.2,9.6,15.07s-4.5,19-4.5,19Z"/><path class="cls-22" d="M112,6.85c-1.16.62-1.07,1.87,1.33,1.55s3.69-2.18,3.43-2.55S113.28,6.15,112,6.85Z"/><path class="cls-28" d="M53.12,11.87s-6.25-5.39-13.9-6.33c0,0-2.35,1.14-5.06,9.58s2.3,25.09,2.3,25.09Z"/><path class="cls-29" d="M39.22,5.54a27.06,27.06,0,0,1,6.19,17.34L43,24.39,36,10S38.35,5.41,39.22,5.54Z"/><path class="cls-20" d="M43.24,23.66s1.65-9.14-4.36-15.86c0,0-6.8,3.21-9.61,15.08a21.83,21.83,0,0,0,5.29,19.76Z"/><path class="cls-22" d="M46.74,8.2c1.15.62,1.06,1.87-1.33,1.56S41.71,7.57,42,7.21,45.44,7.5,46.74,8.2Z"/><path class="cls-30" d="M35.55,69.67c9.58,22.1,81.29,15.21,89.86-3C134.78,46.86,113.23-2.21,78.87.08,49.84,2,23.24,41.26,35.55,69.67Z"/><path class="cls-31" d="M39.51,66.55c9.16,18.13,71.76,15.13,80.9-1.53,7.77-14.16-10.57-57.25-42-55.71S30.71,49.15,39.51,66.55Z"/><path class="cls-22" d="M89,4.18c-.66.79,7,4.09,8,3.62S91.18,1.57,89,4.18Z"/><path class="cls-32" d="M50.55,27.46c-.72,4.32,7.46,3.83,20.54,3.4,15.73-.52,31.52,13,40.72,3.3C113.32,32.56,98.27,11.54,80.1,12S51.17,23.72,50.55,27.46Z"/><path class="cls-33" d="M58.65,72.52c-.83,3.13,5.71,6.26,21.81,5.47,19.46-.95,23.6-5,22.64-6.16-.57-.68-6.4,3-22.39-.51C70.16,69,59.52,69.23,58.65,72.52Z"/><path class="cls-34" d="M41.26,62.79a42.09,42.09,0,0,1,.12-10.62c.79-6.09,2.43-10,3.41-9.48s.82,6.52,1.39,12.4c.45,4.57,1.33,8.86,1.33,8.86S43.3,68,41.26,62.79Z"/><path class="cls-35" d="M42.6,77.12s1-1.05,6.16-4.1c3.49-2,7.14-4.47,7.66-5.36.77-2.09-14.91-.85-14.91-.85l-6,2.86A20.4,20.4,0,0,0,42.6,77.12Z"/><path class="cls-36" d="M30.62,30.89s4,2.61,1.39,8.64c0,0-18.9,10.29-17.8,21.5.91,9.36,27,4.83,27,4.83L42.17,69S20,73.32,12.33,68.11c0,0-2.6-6.18,3.86-17.33A129.44,129.44,0,0,1,30.62,30.89Z"/><path class="cls-37" d="M37.93,65c-2.38,2.69,2.67,5.64,6.82,6.09,4.65.51,12.93-1.34,12.43-6S43.5,58.68,37.93,65Z"/><path class="cls-38" d="M38.24,65.49c-.14.76,16.49,1,16.88-2S39.33,59.55,38.24,65.49Z"/><path class="cls-39" d="M125.36,11.81s-2.2-2.73-5.2-2S117,20,118.75,20.23s2.56-5.24,3.94-6.09a6.87,6.87,0,0,1,3.78-.53Z"/><path class="cls-40" d="M97.93,81.23S87.65,70.87,84.36,60.51l25.7,16.92S101.33,80.5,97.93,81.23Z"/><path class="cls-41" d="M31.79,15.85A4.1,4.1,0,0,1,35.55,15c2.61.42,4.11,5.77,5.44,5.23S41.34,11,37.82,8.45C37.82,8.45,33.29,12.33,31.79,15.85Z"/><path class="cls-42" d="M27,37s-9,10.5-8.46,11.23S27.56,38,27,37Z"/><path class="cls-43" d="M51.16,40.52a42.33,42.33,0,0,1,16.42,1.24c1.21.36-2.53-4-8.21-4.8S50.78,38.55,51.16,40.52Z"/><path class="cls-44" d="M71.05,58.15c1.42-4.3,6.82-4.11,7.93-.25,1.17,4.1-3.57,8.82-5.72,8.07S70,61.33,71.05,58.15Z"/><path class="cls-45" d="M85.26,52.82C80.19,38.74,93.52,20.68,114,18.38c0,0,19.45,12.51,15,47.06C129,65.44,98.4,89.29,85.26,52.82Z"/><path class="cls-46" d="M114,18.38s6.93.06,15.08,6.84,12,26.67-.13,40.22C129,65.44,134.4,37.68,114,18.38Z"/><path class="cls-47" d="M97.07,48.22c.58,6.43,19.71,5.82,22.8,0,2.48-4.67-4.72-19.91-12.34-18.82S96.24,39.17,97.07,48.22Z"/><path class="cls-48" d="M111.27,18.64a29.58,29.58,0,1,0,29.57,29.58A29.58,29.58,0,0,0,111.27,18.64Zm0,54.21a24.63,24.63,0,1,1,24.62-24.63A24.63,24.63,0,0,1,111.27,72.85Z"/><path class="cls-49" d="M111.27,16.58a29.58,29.58,0,1,0,29.57,29.57A29.57,29.57,0,0,0,111.27,16.58Zm0,54.2a24.63,24.63,0,1,1,24.62-24.63A24.63,24.63,0,0,1,111.27,70.78Z"/><path class="cls-50" d="M144.19,92s-6.4,12.1-14.55,16.13-20.53-.82-24.54-4c-5.47-4.35-7.48-19.35-5.17-19.35,2.09,0,4.14,1.59,10.78,2.43h0a64.68,64.68,0,0,0,6.46.47,44.83,44.83,0,0,0,15.26-2.51,39.68,39.68,0,0,0,4.25-1.69C141.52,83.48,144.19,92,144.19,92Z"/><path class="cls-51" d="M135.89,84s-.59,8.9,2.84,10.12,5.46-2.1,5.46-2.1l1.7-3.62Z"/><path class="cls-52" d="M125.36,73.22S137.57,86.61,145.9,92c0,0,5.18-.62,6.19-5.74L134.28,65.73Z"/><path class="cls-53" d="M147.16,80.6s-11.4-8.74-13.49-9.44a15.73,15.73,0,0,0-2.36,4.57c-.73,2.46,12.26,14.66,12.26,14.66S131.49,80.6,126,73.88a74.11,74.11,0,0,0,8.93-7.41Z"/><path class="cls-54" d="M132.34,80.64c-.16.71-5.14,2.09-6.5-.54a5.88,5.88,0,0,1-.34-.79,3.75,3.75,0,0,1,1.35-4.59l0,0,.07.07C127.65,75.46,132.48,80,132.34,80.64Z"/><path class="cls-55" d="M147.16,80.6l-2.43-2.8s-8.17-4.06-9.82-11.33v0s1.9-3.88,5.94-4c1.61-.05,3.06,2.07,4.17,4.93h0C146.7,71.72,147.62,77.76,147.16,80.6Z"/><path class="cls-56" d="M144.19,92s-6.4,12.1-14.55,16.13-20.53-.82-24.54-4c-5.47-4.35-7.48-19.35-5.17-19.35,2.09,0,4.14,1.59,10.78,2.43-.41,0-6.07-.42-7.07,1.18s10.38,18.33,21.72,13.69,9-16.87,7.11-16.91h0a39.68,39.68,0,0,0,4.25-1.69C141.52,83.48,144.19,92,144.19,92Z"/><path class="cls-57" d="M132.34,80.64c-.16.71-5.14,2.09-6.5-.54a5.88,5.88,0,0,1-.34-.79c1.09,1.37,2.78,1.13,3.29-.38s-1.42-3.65-1.85-4.12C127.65,75.46,132.48,80,132.34,80.64Z"/><path class="cls-58" d="M147.16,80.6l-2.43-2.8s-8.17-4.06-9.82-11.33c.2.39,4.13,6.5,8.33,7.06,3.1.42,1.87-5.74,1.77-6.15h0C146.7,71.72,147.62,77.76,147.16,80.6Z"/><path class="cls-22" d="M16.23,131.33a8,8,0,0,0-1.12,5.12A7.48,7.48,0,0,0,16.23,131.33Z"/><path class="cls-22" d="M5.31,144.43a6.57,6.57,0,0,1,2.27-4S6.63,143.83,5.31,144.43Z"/><path class="cls-22" d="M30.13,109.7c-.32-.53,5.74-6.33,7.46-6.53s-.59.6-2,2.75S30.69,110.66,30.13,109.7Z"/><path class="cls-22" d="M39.22,101.92c-.63-.72,2.75-2,2.75-2S39.88,102.68,39.22,101.92Z"/><path class="cls-22" d="M111.27,91.37c-.24,1.39,6.84,1.39,6.71,0S111.5,90,111.27,91.37Z"/><path class="cls-22" d="M64.86,163c-1,.43.79,5.2,2.09,5.1S66,162.44,64.86,163Z"/><ellipse class="cls-59" cx="111.26" cy="47.05" rx="24.6" ry="23.72"/><path class="cls-60" d="M89.45,41.2c.22,4.38,7.32,5.95,21.13-.86,11-5.41,21.54.76,22.45-.92s-10.58-15.64-23-14.07S89.26,37.3,89.45,41.2Z"/></g></g></g></svg>